<svg width="448" height="510" viewBox="0 0 448 510" fill="none" xmlns="http://www.w3.org/2000/svg">
<path d="M416 30H31.9C14.3 30 0 44.5 0 62.3V445.7C0 463.5 14.3 478 31.9 478H416C433.6 478 448 463.5 448 445.7V62.3C448 44.5 433.6 30 416 30ZM135.4 414H69V200.2H135.5V414H135.4ZM102.2 171C80.9 171 63.7 153.7 63.7 132.5C63.7 111.3 80.9 94 102.2 94C123.4 94 140.7 111.3 140.7 132.5C140.7 153.8 123.5 171 102.2 171V171ZM384.3 414H317.9V310C317.9 285.2 317.4 253.3 283.4 253.3C248.8 253.3 243.5 280.3 243.5 308.2V414H177.1V200.2H240.8V229.4H241.7C250.6 212.6 272.3 194.9 304.6 194.9C371.8 194.9 384.3 239.2 384.3 296.8V414V414Z" fill="#E3F5F3"/>
</svg>
