<svg width="309" height="309" viewBox="0 0 309 309" fill="none" xmlns="http://www.w3.org/2000/svg">
<path d="M301.939 267.751L229.698 195.518C246.126 171.133 254.231 140.664 249.892 108.199C242.493 52.9768 197.229 8.03776 141.947 1.03954C59.7536 -9.35974 -9.36126 59.7475 1.03977 141.932C8.04058 197.232 52.9906 242.527 108.225 249.889C140.694 254.227 171.171 246.126 195.554 229.697L267.795 301.931C277.222 311.357 292.509 311.357 301.936 301.931C311.354 292.493 311.354 277.165 301.939 267.751ZM47.7376 125.518C47.7376 82.9261 82.3916 48.2759 124.988 48.2759C167.584 48.2759 202.238 82.9261 202.238 125.518C202.238 168.109 167.584 202.759 124.988 202.759C82.3916 202.759 47.7376 168.121 47.7376 125.518Z" fill="#004139"/>
<path d="M139.515 60.1022H106.418C90.2396 60.1022 77.0803 73.249 77.0803 89.4124C77.0803 94.8073 81.4535 98.9077 86.8597 98.9077C92.2658 98.9077 96.639 94.5356 96.639 89.4124C96.639 84.0267 101.021 79.6423 106.418 79.6423H139.515C148.225 79.6423 155.315 86.7226 155.315 95.4546C155.315 101.475 151.963 106.895 145.994 109.905L116.137 127.391C112.867 129.161 111.308 132.367 111.308 135.817V148.03C111.308 153.425 115.681 157.797 121.087 157.797C126.493 157.797 130.867 153.425 130.867 148.03V141.405L155.315 127.055C167.377 121.025 174.874 108.913 174.874 95.4546C174.874 75.9602 159.013 60.1022 139.515 60.1022ZM121.087 172.455C114.337 172.455 108.863 177.923 108.863 184.668C108.863 191.412 114.337 196.605 121.087 196.605C127.838 196.605 133.312 191.14 133.312 184.668C133.312 178.195 127.841 172.455 121.087 172.455Z" fill="#004139"/>
</svg>
